<?xml version="1.0" encoding="utf-8"?>
<!-- Generator: Adobe Illustrator 21.1.0, SVG Export Plug-In . SVG Version: 6.00 Build 0)  -->
<svg version="1.1" id="Camada_1" xmlns="http://www.w3.org/2000/svg" xmlns:xlink="http://www.w3.org/1999/xlink" x="0px" y="0px"
	 viewBox="0 0 120 96.3" style="enable-background:new 0 0 120 96.3;" xml:space="preserve">
<style type="text/css">
	.st0{fill:#0E532C;}
</style>
<path class="st0" d="M42.4,41.7H17.7c-4.8,0-8.7,3.9-8.7,8.7c0,4.8,3.9,8.7,8.7,8.7h41.9c-3.2-1.2-6.2-3-8.8-5.2
	C47,50.5,44.1,46.4,42.4,41.7z"/>
<path class="st0" d="M107.1,51.1c0-0.2,0-0.4,0-0.7c0-4.8-3.9-8.7-8.7-8.7h-0.8c-0.1,0.3-0.2,0.5-0.3,0.8L107.1,51.1z"/>
<path class="st0" d="M80.5,59.1h6.6l-2.3-2C83.4,57.9,82,58.5,80.5,59.1z"/>
<path class="st0" d="M99.1,26.6c4.5-0.3,8.1-4.1,8.1-8.6c0-4.8-3.9-8.7-8.7-8.7h-9.3c0,0,0.1,0,0.1,0.1C94.6,14,98,20.1,99.1,26.6z"
	/>
<path class="st0" d="M50.9,9.3H17.7c-4.8,0-8.7,3.9-8.7,8.7c0,4.8,3.9,8.7,8.7,8.7H41c0.9-5.2,3.2-10.1,6.8-14.3
	C48.8,11.3,49.8,10.2,50.9,9.3z"/>
<path class="st0" d="M98.5,74.2H17.7c-4.8,0-8.7,3.9-8.7,8.7c0,4.8,3.9,8.7,8.7,8.7h80.7c4.8,0,8.7-3.9,8.7-8.7
	C107.2,78.1,103.3,74.2,98.5,74.2z"/>
<path class="st0" d="M107.9,57L92.5,43.5c5.4-10.2,3.3-23.2-5.9-31.1C76,3.2,60,4.4,50.8,15c-9.2,10.6-8,26.7,2.6,35.8
	c9.2,7.9,22.4,8.1,31.7,1.2l15.3,13.5C106.1,70.4,113.4,61.9,107.9,57z M81.9,41.9c-5.7,6.6-15.6,7.3-22.1,1.6
	c-6.6-5.7-7.3-15.6-1.6-22.1c5.7-6.6,15.6-7.3,22.1-1.6C86.9,25.4,87.6,35.3,81.9,41.9z"/>
</svg>
