<?xml version="1.0" encoding="utf-8"?>
<!-- Generator: Adobe Illustrator 21.1.0, SVG Export Plug-In . SVG Version: 6.00 Build 0)  -->
<svg version="1.1" id="Ñëîé_1" xmlns="http://www.w3.org/2000/svg" xmlns:xlink="http://www.w3.org/1999/xlink" x="0px" y="0px"
	 viewBox="0 0 30 30" style="enable-background:new 0 0 30 30;" xml:space="preserve">
<style type="text/css">
	.st0{clip-path:url(#SVGID_5_);}
	.st1{clip-path:url(#SVGID_6_);fill:url(#SVGID_7_);}
	.st2{clip-path:url(#SVGID_12_);}
	.st3{clip-path:url(#SVGID_13_);fill:url(#SVGID_14_);}
	.st4{fill:#FFFFFF;}
</style>
<g>
	<g>
		<g>
			<g>
				<defs>
					<polygon id="SVGID_1_" points="2.3,2.3 3.8,2.3 2.3,3.8 					"/>
				</defs>
				<clipPath id="SVGID_2_">
					<use xlink:href="#SVGID_1_"  style="overflow:visible;"/>
				</clipPath>
			</g>
			<g>
				<defs>
					<polygon id="SVGID_3_" points="2.3,2.3 3.8,2.3 2.3,3.8 					"/>
				</defs>
				<defs>
					<polygon id="SVGID_4_" points="-0.6,-0.6 -2,-0.6 -0.6,-2 					"/>
				</defs>
				<clipPath id="SVGID_5_">
					<use xlink:href="#SVGID_3_"  style="overflow:visible;"/>
				</clipPath>
				<clipPath id="SVGID_6_" class="st0">
					<use xlink:href="#SVGID_4_"  style="overflow:visible;"/>
				</clipPath>
				
					<radialGradient id="SVGID_7_" cx="-2749.7356" cy="-16660.5898" r="376.7243" gradientTransform="matrix(1.2456 0 0 -0.1074 680.4456 414.1994)" gradientUnits="userSpaceOnUse">
					<stop  offset="0" style="stop-color:#FFFFFF"/>
					<stop  offset="1" style="stop-color:#000000"/>
				</radialGradient>
				<ellipse class="st1" cx="-2744.6" cy="2203.5" rx="469.1" ry="40.5"/>
			</g>
		</g>
	</g>
</g>
<g>
	<g>
		<g>
			<g>
				<defs>
					<polygon id="SVGID_8_" points="2.3,2.3 3.8,2.3 2.3,3.8 					"/>
				</defs>
				<clipPath id="SVGID_9_">
					<use xlink:href="#SVGID_8_"  style="overflow:visible;"/>
				</clipPath>
			</g>
			<g>
				<defs>
					<polygon id="SVGID_10_" points="2.3,2.3 3.8,2.3 2.3,3.8 					"/>
				</defs>
				<defs>
					<polygon id="SVGID_11_" points="-0.6,-0.6 -2,-0.6 -0.6,-2 					"/>
				</defs>
				<clipPath id="SVGID_12_">
					<use xlink:href="#SVGID_10_"  style="overflow:visible;"/>
				</clipPath>
				<clipPath id="SVGID_13_" class="st2">
					<use xlink:href="#SVGID_11_"  style="overflow:visible;"/>
				</clipPath>
				
					<radialGradient id="SVGID_14_" cx="-1645.0972" cy="-16660.5898" r="376.7243" gradientTransform="matrix(1.2456 0 0 -0.1074 680.4456 414.1994)" gradientUnits="userSpaceOnUse">
					<stop  offset="0" style="stop-color:#FFFFFF"/>
					<stop  offset="1" style="stop-color:#000000"/>
				</radialGradient>
				<ellipse class="st3" cx="-1368.7" cy="2203.5" rx="469.1" ry="40.5"/>
			</g>
		</g>
	</g>
</g>
<path class="st4" d="M17.2,7.8c0.3-0.4,0.9-0.6,1.6-0.6c0.4,0,0.6,0,0.9,0c0.1,0,0.4,0,0.6,0V3.8c-0.4,0-0.9-0.1-1.3-0.1
	c-0.4,0-0.9,0-1.3,0c-1.7,0-3,0.4-3.9,1.2c-0.9,0.7-1.3,1.9-1.3,3.5v2.9H9.8v3.3h2.6v13.9h4.3V14.5h3.3V11h-3.5V9.6
	C16.6,8.7,16.7,8.1,17.2,7.8z"/>
</svg>
