<?xml version="1.0" encoding="utf-8"?>
<!-- Generator: Adobe Illustrator 21.1.0, SVG Export Plug-In . SVG Version: 6.00 Build 0)  -->
<svg version="1.1" id="Ñëîé_1" xmlns="http://www.w3.org/2000/svg" xmlns:xlink="http://www.w3.org/1999/xlink" x="0px" y="0px"
	 viewBox="0 0 30 30" style="enable-background:new 0 0 30 30;" xml:space="preserve">
<style type="text/css">
	.st0{fill:#FFFFFF;}
	.st1{fill:#005620;}
</style>
<g id="XMLID_3_">
	<path id="XMLID_4_" class="st0" d="M26.3,7.2C25,5.9,20.6,6.2,15,6C9.4,6.2,5,5.9,3.7,7.2C2.9,8.1,2.2,8.8,2.2,15
		c0,6.2,0.6,6.9,1.5,7.8C5,24.1,9.4,23.8,15,24c5.6-0.2,10,0,11.3-1.3c0.9-0.9,1.5-1.6,1.5-7.8C27.8,8.8,27.1,8.1,26.3,7.2z"/>
	<polygon id="XMLID_1_" class="st1" points="19,15 12.4,18.8 12.4,11.1 19,15 	"/>
</g>
</svg>
